<?xml version="1.0" encoding="UTF-8" standalone="no"?>
<svg
   version="1.1"
   width="512"
   height="512"
   id="svg5"
   sodipodi:docname="icon.svg"
   inkscape:version="1.3.2 (091e20e, 2023-11-25, custom)"
   xmlns:inkscape="http://www.inkscape.org/namespaces/inkscape"
   xmlns:sodipodi="http://sodipodi.sourceforge.net/DTD/sodipodi-0.dtd"
   xmlns="http://www.w3.org/2000/svg"
   xmlns:svg="http://www.w3.org/2000/svg">
  <defs
     id="defs5" />
  <sodipodi:namedview
     id="namedview5"
     pagecolor="#ffffff"
     bordercolor="#999999"
     borderopacity="1"
     inkscape:showpageshadow="2"
     inkscape:pageopacity="0"
     inkscape:pagecheckerboard="0"
     inkscape:deskcolor="#d1d1d1"
     inkscape:zoom="1.7265625"
     inkscape:cx="276.85068"
     inkscape:cy="297.41176"
     inkscape:window-width="2400"
     inkscape:window-height="1271"
     inkscape:window-x="5591"
     inkscape:window-y="445"
     inkscape:window-maximized="1"
     inkscape:current-layer="svg5" />
  <path
     d="M0 0 C168.96 0 337.92 0 512 0 C512 168.96 512 337.92 512 512 C343.04 512 174.08 512 0 512 C0 343.04 0 174.08 0 0 Z "
     fill="#000000"
     transform="translate(0,0)"
     id="path1" />
  <path
     d="M0 0 C14.52 0 29.04 0 44 0 C44 141.24 44 282.48 44 428 C29.48 428 14.96 428 0 428 C0 286.76 0 145.52 0 0 Z "
     fill="#FFFFFF"
     transform="translate(234,42)"
     id="path2" />
  <path
     d="M0 0 C14.52 0 29.04 0 44 0 C44 35.31 44 70.62 44 107 C29.48 107 14.96 107 0 107 C0 71.69 0 36.38 0 0 Z "
     fill="#FFFFFF"
     transform="translate(426,277)"
     id="path3" />
  <path
     d="M0 0 C14.52 0 29.04 0 44 0 C44 35.31 44 70.62 44 107 C29.48 107 14.96 107 0 107 C0 71.69 0 36.38 0 0 Z "
     fill="#FFFFFF"
     transform="translate(42,128)"
     id="path4" />
  <circle
     style="fill:#ffffff;fill-opacity:1"
     id="path7"
     cx="383.48862"
     cy="299.78769"
     r="23" />
</svg>
